<?xml version="1.0" encoding="UTF-8" standalone="no"?>
<svg width="421px" height="410px" viewBox="0 0 421 410" version="1.1" xmlns="http://www.w3.org/2000/svg" xmlns:xlink="http://www.w3.org/1999/xlink">
    <!-- Generator: Sketch 40.2 (33826) - http://www.bohemiancoding.com/sketch -->
    <title>Layer_7_copy_3</title>
    <desc>Created with Sketch.</desc>
    <defs></defs>
    <g id="Page-1" stroke="none" stroke-width="1" fill="none" fill-rule="evenodd">
        <g id="Layer_7_copy_3">
            <path d="M216.4,2.2 L215.7,37.8 C215.7,38.3 215.4,38.7 215,39 L210.6,41.1 C209.8,41.5 209.3,42.3 209.3,43.2 L213.2,105.4 C213.3,106.4 213.9,107.3 214.8,107.7 L214.8,107.7 C216.6,108.5 218.6,107.3 218.7,105.4 L224,2.5 C224.1,1.4 223.2,0.5 222.2,0.5 L218.6,0.3 C217.3,0.3 216.4,1.2 216.4,2.2 L216.4,2.2 Z" id="Shape" fill="#ffffff"></path>
            <path d="M242.8,4.4 L238.7,30.8 C238.6,31.2 238.3,31.6 237.9,31.7 L232.7,32.9 C231.8,33.1 231.1,33.9 231,34.9 L224.9,111.6 C224.8,112.6 225.3,113.5 226.1,114.1 L226.1,114.1 C227.7,115.1 229.8,114.2 230.1,112.3 L248.5,5.5 C248.7,4.5 248,3.5 247,3.3 L244.9,3 C244,2.8 243,3.4 242.8,4.4 L242.8,4.4 Z" id="Shape" fill="#ffffff"></path>
            <path d="M268.1,10 L262.2,28.5 C262,29 261.6,29.3 261.1,29.3 L257.5,29.3 C256.5,29.3 255.6,30 255.4,31 L233.4,116.9 C233.2,117.8 233.5,118.8 234.3,119.4 L234.3,119.4 C235.6,120.4 237.5,119.8 238,118.2 L273.7,11.6 C274,10.6 273.5,9.4 272.4,9.1 L270.6,8.6 C269.5,8.4 268.4,9 268.1,10 L268.1,10 Z" id="Shape" fill="#ffffff"></path>
            <path d="M292.5,18.4 L286.3,30.6 C286.1,31.1 285.6,31.3 285.1,31.2 L281.5,30.7 C280.5,30.5 279.5,31.1 279.1,32 L240.7,122 C240.2,123.1 240.5,124.3 241.4,125.1 L241.4,125.1 C242.7,126.2 244.7,125.8 245.5,124.2 L297.5,20.8 C298,19.8 297.6,18.6 296.5,18.2 L295,17.5 C294.1,17.1 293,17.5 292.5,18.4 L292.5,18.4 Z" id="Shape" fill="#ffffff"></path>
            <path d="M315.3,29.6 L310.7,36.4 C310.4,36.9 309.8,37.1 309.2,36.9 L306,36 C305,35.7 304,36.1 303.5,37 L248.6,128.6 C248,129.6 248.2,130.9 249,131.7 L249,131.7 C250.1,132.8 251.9,132.6 252.8,131.3 L320,32.6 C320.6,31.6 320.4,30.3 319.4,29.8 L317.9,28.9 C317,28.5 315.9,28.7 315.3,29.6 L315.3,29.6 Z" id="Shape" fill="#ffffff"></path>
            <path d="M338.2,44.6 L336.1,47 C335.7,47.5 335.1,47.6 334.5,47.3 L330.4,45.3 C329.6,44.9 328.6,45.1 328.1,45.8 L255.7,135.4 C255,136.3 255,137.6 255.8,138.5 L255.8,138.5 C256.7,139.5 258.3,139.5 259.2,138.5 L341.8,47.7 C342.5,46.9 342.4,45.6 341.6,44.9 L340.8,44.3 C340,43.7 338.9,43.9 338.2,44.6 L338.2,44.6 Z" id="Shape" fill="#ffffff"></path>
            <path d="M376,81.2 L374.8,82 C374.4,82.3 373.8,82.2 373.4,81.7 L370.9,78 C370.3,77.1 369.1,76.9 368.2,77.5 L267.8,148.8 C266.6,149.6 266.3,151.3 267.2,152.5 L267.2,152.5 C268,153.6 269.6,153.9 270.7,153.2 L378.2,84.6 C379,84.1 379.2,83 378.6,82.3 L378.1,81.6 C377.7,80.9 376.7,80.7 376,81.2 L376,81.2 Z" id="Shape" fill="#ffffff"></path>
            <path d="M272.2,160 C273,161.2 274.6,161.7 275.9,161.1 L392.5,105.9 C393.3,105.5 393.6,104.5 393.2,103.8 L392.6,102.8 C392.2,102.1 391.3,101.9 390.6,102.2 L387.3,103.8 C386.7,104.1 386.1,103.8 385.8,103.3 L383.6,99 C383.1,97.9 381.7,97.5 380.7,98.1 L273.3,155.9 C271.8,156.7 271.3,158.6 272.2,160 L272.2,160 L272.2,160 Z" id="Shape" fill="#ffffff"></path>
            <path d="M401.9,124.7 L396.5,126.7 C395.8,126.9 395.1,126.6 394.9,126 L393.5,122.2 C393.1,121.2 391.9,120.6 390.9,121 L278.2,164.2 C276.7,164.8 276,166.5 276.8,168 L276.8,168 C277.4,169.1 278.7,169.6 279.9,169.3 L403.7,129.8 C404.8,129.5 405.3,128.3 404.9,127.2 L404.3,125.8 C403.9,124.8 402.9,124.4 401.9,124.7 L401.9,124.7 Z" id="Shape" fill="#ffffff"></path>
            <path d="M357.9,61 C357.7,61.1 357.5,61.2 357.3,61 L353.2,58 C352.4,57.4 351.2,57.4 350.5,58.1 L261.9,141.8 C260.9,142.7 260.8,144.3 261.7,145.4 L261.7,145.4 C262.6,146.5 264.3,146.7 265.4,145.7 L361,64.3 C361.6,63.8 361.7,62.8 361.1,62.2 L360,61 C359.4,60.5 358.5,60.5 357.9,61 L357.9,61 L357.9,61 Z" id="Shape" fill="#ffffff"></path>
            <path d="M410.8,148.9 L402.4,150.3 C401.7,150.4 401.1,150 401,149.3 L400.4,146.3 C400.2,145.1 399,144.3 397.8,144.6 L282.8,172.2 C281.1,172.6 280.2,174.4 280.9,176 L280.9,176 C281.4,177.1 282.6,177.8 283.9,177.6 L412.3,155 C413.4,154.8 414.1,153.7 413.8,152.6 L413,150.1 C412.6,149.3 411.7,148.8 410.8,148.9 L410.8,148.9 Z" id="Shape" fill="#ffffff"></path>
            <path d="M416.4,174 L404.9,174.6 C404.3,174.6 403.7,174.1 403.7,173.5 L403.6,171.4 C403.5,170.1 402.4,169.2 401.2,169.3 L286.6,182.1 C285,182.3 283.9,183.9 284.5,185.5 L284.5,185.5 C284.9,186.6 285.9,187.3 287.1,187.2 L417.1,180.3 C418.3,180.2 419.2,179.2 419,178 L418.7,175.7 C418.4,174.7 417.5,174 416.4,174 L416.4,174 Z" id="Shape" fill="#ffffff"></path>
            <path d="M418.9,200.2 L404.4,199.2 C403.7,199.1 403.1,198.5 403.2,197.8 L403.4,195.8 C403.5,194.6 402.5,193.5 401.3,193.5 L289.8,192.1 C288.1,192.1 286.8,193.7 287.2,195.4 L287.2,195.4 C287.5,196.5 288.4,197.4 289.6,197.4 L418.7,206.3 C419.8,206.4 420.7,205.5 420.7,204.4 L420.7,202.2 C420.7,201.1 419.9,200.3 418.9,200.2 L418.9,200.2 Z" id="Shape" fill="#ffffff"></path>
            <path d="M417.8,227.1 L399.6,223.7 C398.9,223.6 398.5,222.9 398.7,222.3 L399.4,220 C399.7,218.8 398.9,217.5 397.7,217.4 L291.9,202.7 C290.2,202.5 288.8,203.9 289,205.6 L289,205.6 C289.2,206.7 290,207.5 291,207.7 L416.6,233.5 C417.7,233.7 418.7,233 418.8,231.9 L419.2,229.1 C419.4,228.2 418.7,227.3 417.8,227.1 L417.8,227.1 Z" id="Shape" fill="#ffffff"></path>
            <path d="M412.6,255.4 L389.6,247.3 C388.9,247.1 388.6,246.2 388.9,245.6 L390.3,243.1 C390.9,242 390.3,240.6 389.1,240.2 L293.4,214 C291.6,213.5 289.9,215 290.1,216.9 L290.1,216.9 C290.2,217.9 290.9,218.8 291.9,219.1 L411,260.1 C412,260.5 413.1,259.9 413.4,258.8 L413.7,257.6 C414,256.7 413.5,255.7 412.6,255.4 L412.6,255.4 Z" id="Shape" fill="#ffffff"></path>
            <path d="M404,280.8 L374.8,267.3 C374.1,267 373.9,266.1 374.4,265.5 L375.9,263.8 C376.7,262.8 376.4,261.3 375.2,260.8 L293.9,226 C292.1,225.2 290.1,226.5 290.1,228.4 L290.1,228.4 C290.1,229.5 290.6,230.5 291.6,231 L401.2,286.6 C402.1,287.1 403.3,286.7 403.7,285.7 L404.8,283.1 C405.3,282.3 404.9,281.3 404,280.8 L404,280.8 Z" id="Shape" fill="#ffffff"></path>
            <path d="M392.5,307.7 C393.1,306.7 392.8,305.3 391.8,304.7 L357.9,282.6 C357.2,282.1 357.2,281.1 357.8,280.6 L358.2,280.3 C359.3,279.5 359.2,277.8 358,277.1 L293,239.4 C291.3,238.4 289.2,239.5 289,241.4 L289,241.4 C288.9,242.4 289.3,243.4 290.1,243.9 L387.9,310.6 C389,311.3 390.4,311 391,309.9 L392.5,307.7 L392.5,307.7 Z" id="Shape" fill="#ffffff"></path>
            <path d="M377.1,330.1 C377.8,329.2 377.7,327.9 376.8,327.2 L338,294.3 C337.3,293.7 337.5,292.6 338.3,292.3 L338.9,292 C340.2,291.4 340.3,289.7 339.2,288.9 L291.8,253 C290,251.5 287.2,252.5 286.8,254.8 L286.8,254.8 C286.6,255.9 287,257 287.8,257.8 L372.2,332.9 C373.1,333.7 374.5,333.6 375.2,332.7 L377.1,330.1 L377.1,330.1 Z" id="Shape" fill="#ffffff"></path>
            <path d="M358.8,350.3 C359.7,349.5 359.7,348.1 358.9,347.2 L315.8,301.5 C315.2,300.9 315.5,299.9 316.4,299.7 L317.3,299.5 C318.5,299.2 318.9,297.7 318,296.9 L288.2,268.3 C286.5,266.7 283.6,267.4 283,269.7 L283,269.7 C282.7,270.7 282.9,271.9 283.7,272.7 L353.9,352.1 C354.7,353 356.1,353.1 357,352.2 L358.8,350.3 L358.8,350.3 Z" id="Shape" fill="#ffffff"></path>
            <path d="M335.7,369.7 C336.7,369 336.9,367.6 336.2,366.6 L292.3,303.7 C292,303.2 292.3,302.6 292.9,302.6 L293.6,302.6 C294.6,302.6 295.1,301.4 294.5,300.6 L281.3,285.6 C280.1,284.2 277.7,284.6 277,286.3 L277,286.3 C276.7,287.1 276.8,288 277.2,288.6 L331.3,369.9 C332,371 333.4,371.2 334.5,370.5 L335.7,369.7 L335.7,369.7 Z" id="Shape" fill="#ffffff"></path>
            <path d="M313.4,383.9 C314.4,383.4 314.8,382.1 314.3,381.1 L274.6,302.7 C274,301.5 272.6,301 271.4,301.6 L271.4,301.6 C270.2,302.2 269.7,303.7 270.3,304.9 L309.1,383.9 C309.6,385 311,385.4 312,384.8 L313.4,383.9 L313.4,383.9 Z" id="Shape" fill="#ffffff"></path>
            <path d="M289.3,395.2 C290.4,394.8 291,393.5 290.6,392.4 L262,318.8 C261.8,318.4 261.9,318 262.1,317.6 L264.5,313.6 C265,312.7 265,311.6 264.3,310.8 L255.4,298.8 C255,298.3 254.4,297.9 253.8,297.8 L253.8,297.8 C251.7,297.3 250,299.4 250.7,301.4 L284,395.1 C284.4,396.3 285.7,396.9 286.9,396.4 L289.3,395.2 L289.3,395.2 Z" id="Shape" fill="#ffffff"></path>
            <path d="M262.6,401.4 L247,337 C246.9,336.7 247,336.5 247.2,336.3 L251.8,331.2 C252.5,330.5 252.7,329.4 252.3,328.5 L238.6,294.8 C238.3,294 237.6,293.4 236.8,293.1 L236.8,293.1 C234.7,292.4 232.6,294.3 233.1,296.4 L256,402.9 C256.3,404.1 257.5,404.9 258.7,404.6 L260.9,404.1 C262.1,403.8 262.9,402.6 262.6,401.4 L262.6,401.4 Z" id="Shape" fill="#ffffff"></path>
            <path d="M235.5,406.4 L229.4,351.4 C229.4,351.1 229.5,350.9 229.7,350.7 L233.7,347.9 C234.5,347.3 234.9,346.3 234.7,345.3 L224.2,289.8 C224,289 223.5,288.2 222.7,287.9 L222.7,287.9 C220.9,287.1 218.9,288.5 219,290.5 L227.8,407.2 C227.9,408.4 229,409.3 230.2,409.2 L233.5,408.9 C234.8,408.7 235.7,407.6 235.5,406.4 L235.5,406.4 Z" id="Shape" fill="#ffffff"></path>
            <path d="M205.8,407.8 L207.5,363.1 C207.5,362.8 207.7,362.5 208,362.4 L212.7,360.3 C213.7,359.9 214.3,358.9 214.2,357.9 L212.3,284.6 C212.3,283.5 211.7,282.5 210.7,282 L210.7,282 C208.7,280.9 206.2,282.3 206.1,284.5 L198.8,407.5 C198.7,408.8 199.7,409.8 200.9,409.9 L203.5,410 C204.7,410 205.7,409.1 205.8,407.8 L205.8,407.8 Z" id="Shape" fill="#ffffff"></path>
            <path d="M177,405.3 L182.9,370.7 C183,370.3 183.3,370 183.7,369.9 L188.6,368.8 C189.7,368.6 190.4,367.7 190.6,366.6 L201,278.1 C201.1,277.1 200.7,276.1 199.8,275.5 L199.8,275.5 C198.2,274.4 196,275.3 195.6,277.2 L169.8,403.9 C169.5,405.1 170.4,406.3 171.6,406.6 L174.5,407.1 C175.7,407.3 176.8,406.5 177,405.3 L177,405.3 Z" id="Shape" fill="#ffffff"></path>
            <path d="M148.2,398.7 L156,373.9 C156.1,373.6 156.4,373.4 156.7,373.3 L161.8,373 C162.9,372.9 163.8,372.2 164.1,371.1 L190.9,271.3 C191.2,270.3 190.8,269.2 190,268.5 L190,268.5 C188.6,267.3 186.4,268 185.8,269.7 L141.4,396.4 C141,397.6 141.6,398.9 142.8,399.2 L145.4,400 C146.6,400.5 147.8,399.9 148.2,398.7 L148.2,398.7 Z" id="Shape" fill="#ffffff"></path>
            <path d="M120.9,388.2 L128.1,372.3 C128.2,372 128.6,371.8 128.9,371.8 L133.3,372.4 C134.4,372.6 135.5,371.9 136,370.9 L182.5,264.4 C182.9,263.4 182.7,262.3 181.9,261.5 L181.9,261.5 C180.7,260.3 178.7,260.7 177.9,262.2 L114.4,385.1 C113.8,386.2 114.3,387.5 115.4,388.1 L117.9,389.3 C119.1,389.8 120.4,389.4 120.9,388.2 L120.9,388.2 Z" id="Shape" fill="#ffffff"></path>
            <path d="M91.9,374.5 C92.8,375.1 94,374.9 94.6,373.9 L100.4,364.9 C100.7,364.5 101.2,364.3 101.6,364.5 L105.8,366.1 C106.9,366.5 108.2,366.1 108.8,365.1 L175.1,257.3 C175.7,256.3 175.6,255.1 174.8,254.2 L174.8,254.2 C173.7,253 171.8,253.1 170.8,254.4 L89.1,370.1 C88.5,371 88.7,372.2 89.6,372.8 L91.9,374.5 L91.9,374.5 Z" id="Shape" fill="#ffffff"></path>
            <path d="M21.5,291 L151.2,227.3 C152.7,226.6 153.2,224.8 152.5,223.3 L152.5,223.3 C151.8,222 150.2,221.4 148.8,222.1 L17,281.1 C16,281.5 15.6,282.7 16,283.7 L18.9,290.1 C19.4,291.1 20.6,291.5 21.5,291 L21.5,291 Z" id="Shape" fill="#ffffff"></path>
            <path d="M11.4,265.4 L146.7,218.9 C148.2,218.4 148.9,216.7 148.3,215.2 L148.3,215.2 C147.7,214 146.4,213.4 145.1,213.7 L7.9,253.5 C6.9,253.8 6.2,254.9 6.5,256 L8.8,264.1 C9.2,265.1 10.4,265.7 11.4,265.4 L11.4,265.4 Z" id="Shape" fill="#ffffff"></path>
            <path d="M4.8,237.5 L142.8,209.6 C144.3,209.3 145.2,207.7 144.7,206.2 L144.7,206.2 C144.3,205.1 143.1,204.4 141.9,204.6 L3.1,226.4 C2,226.6 1.3,227.6 1.4,228.6 L2.4,235.8 C2.5,236.9 3.6,237.7 4.8,237.5 L4.8,237.5 Z" id="Shape" fill="#ffffff"></path>
            <path d="M2.1,210.2 L139.2,200.7 C141,200.6 142.2,198.8 141.7,197.1 L141.7,197.1 C141.3,195.9 140.2,195.1 138.9,195.1 L1.9,199.7 C0.9,199.7 0.1,200.6 0.1,201.6 L0.1,208.4 C0.1,209.4 1,210.3 2.1,210.2 L2.1,210.2 Z" id="Shape" fill="#ffffff"></path>
            <path d="M3.3,183 L136.4,191.3 C138.3,191.4 139.7,189.7 139.3,187.9 L139.3,187.9 C139,186.7 138,185.8 136.8,185.7 L4.5,172.7 C3.5,172.6 2.6,173.3 2.4,174.3 L1.5,180.9 C1.4,182 2.2,182.9 3.3,183 L3.3,183 Z" id="Shape" fill="#ffffff"></path>
            <path d="M8.2,156.7 L134.1,181.3 C136.1,181.7 137.9,180 137.6,178 L137.6,178 C137.4,176.8 136.5,175.8 135.3,175.5 L10.6,147.1 C9.5,146.9 8.5,147.5 8.2,148.5 L6.6,154.1 C6.3,155.3 7,156.5 8.2,156.7 L8.2,156.7 Z" id="Shape" fill="#ffffff"></path>
            <path d="M16.2,131.6 L132.7,170.1 C134.7,170.8 136.7,169.2 136.6,167.1 L136.6,167.1 C136.5,165.9 135.8,164.9 134.7,164.5 L20,122.1 C19,121.7 17.9,122.2 17.5,123.2 L15,129 C14.5,130 15.1,131.3 16.2,131.6 L16.2,131.6 Z" id="Shape" fill="#ffffff"></path>
            <path d="M27.5,107.9 L132.9,157.2 C134.6,158 136.5,156.8 136.6,155 L136.6,155 C136.6,154 136.1,153.1 135.2,152.6 L31.8,100.4 C31,100 29.9,100.3 29.4,101 L26.6,105.3 C26.1,106.2 26.5,107.5 27.5,107.9 L27.5,107.9 Z" id="Shape" fill="#ffffff"></path>
            <path d="M42,85.6 L133.7,144.6 C135.3,145.6 137.4,144.6 137.6,142.8 L137.6,142.8 C137.7,141.9 137.3,140.9 136.5,140.4 L47.2,78.5 C46.4,77.9 45.3,78.1 44.7,78.9 L41.6,82.9 C40.9,83.8 41.1,85 42,85.6 L42,85.6 Z" id="Shape" fill="#ffffff"></path>
            <path d="M58.3,63.2 C57.4,64.1 57.4,65.6 58.4,66.4 L136.5,130 C137.8,131 139.7,130.4 140.1,128.8 L140.1,128.8 C140.3,128 140,127.2 139.4,126.7 L64.6,60 C63.8,59.3 62.5,59.3 61.7,60 L58.3,63.2 L58.3,63.2 Z" id="Shape" fill="#ffffff"></path>
            <path d="M77.4,49.2 L139.9,115.6 C141.2,117 143.5,116.5 144.1,114.7 L144.1,114.7 C144.4,113.9 144.2,113 143.6,112.3 L84.1,43.5 C83.4,42.7 82.3,42.6 81.5,43.3 L77.6,46.5 C76.7,47.1 76.7,48.4 77.4,49.2 L77.4,49.2 Z" id="Shape" fill="#ffffff"></path>
            <path d="M97.9,34.6 L145.6,99.8 C146.8,101.5 149.4,101.2 150.3,99.3 L150.3,99.3 C150.7,98.4 150.6,97.4 150.1,96.6 L105.2,29.7 C104.6,28.8 103.4,28.6 102.6,29.1 L98.5,31.7 C97.5,32.4 97.2,33.7 97.9,34.6 L97.9,34.6 Z" id="Shape" fill="#ffffff"></path>
            <path d="M120.3,19.9 C119.3,20.4 118.9,21.6 119.4,22.5 C125.1,32.5 153.4,82 156.4,87.7 C156.6,88 156.6,88.4 156.4,88.8 L154.5,92.3 C154.2,92.8 154.6,93.5 155.2,93.5 L162.5,93.7 C163.1,93.7 163.5,93.1 163.2,92.5 L126.3,19 C125.8,18.1 124.8,17.7 123.9,18.1 L120.3,19.9 L120.3,19.9 Z" id="Shape" fill="#ffffff"></path>
            <path d="M140.7,13.9 L166.4,75 C166.6,75.4 166.5,75.9 166.2,76.2 L164.1,78.6 C163.5,79.2 163.5,80.2 164,80.9 L174.1,94.5 C174.5,95 175,95.3 175.6,95.4 L175.6,95.4 C177.2,95.6 178.5,94 177.9,92.5 L148,11.3 C147.7,10.4 146.6,9.8 145.7,10.2 L142,11.4 C140.8,11.7 140.2,12.8 140.7,13.9 L140.7,13.9 Z" id="Shape" fill="#ffffff"></path>
            <path d="M167.3,4.5 C166.3,4.7 165.6,5.7 165.9,6.8 L180.2,60.9 C180.3,61.3 180.2,61.8 179.8,62.1 L176.7,64.9 C176,65.6 175.7,66.6 176.1,67.5 L187.8,96.7 C188.1,97.5 188.7,98 189.5,98.3 L189.5,98.3 C191.4,98.8 193.2,97.2 192.8,95.2 L173.7,5.2 C173.5,4.2 172.5,3.6 171.6,3.8 L167.3,4.5 L167.3,4.5 Z" id="Shape" fill="#ffffff"></path>
            <path d="M192.4,2.9 L197.2,47.8 C197.2,48.2 197.1,48.6 196.7,48.8 L192.7,51.5 C192,52 191.7,52.8 191.8,53.6 L200.8,100.3 C201,101.2 201.6,101.9 202.4,102.2 L202.4,102.2 C204.1,102.9 206,101.5 205.9,99.7 L199.5,2.3 C199.4,1.3 198.5,0.5 197.5,0.5 L194.1,0.7 C193.1,0.9 192.3,1.8 192.4,2.9 L192.4,2.9 Z" id="Shape" fill="#ffffff"></path>
            <!--<path d="M305.6,180.7 L316.5,177.5" id="Shape" fill="#FFFFFF"></path>-->
            <path d="M153.6,230.4 L30,304.7 C28.6,305.5 28.1,307.3 29,308.7 L30,310.4 L32.3,314 C33.2,315.4 35.1,315.8 36.4,314.9 L156.3,234.6 C157.4,233.8 157.8,232.3 157,231.2 L157,231.2 C156.3,230 154.8,229.6 153.6,230.4 L153.6,230.4 Z" id="Shape" fill="#ffffff"></path>
            <path d="M162.5,239.3 C161.7,238.2 160.1,238 159,238.8 L46.4,331 C45.7,331.6 45.6,332.6 46.2,333.3 L47.5,334.8 C48.1,335.5 49,335.6 49.7,335 L50.2,334.6 C50.6,334.3 51.2,334.3 51.6,334.6 L53.2,336 L55,337.5 C55.9,338.2 57.1,338.2 58,337.4 L162.3,242.4 C163.1,241.7 163.2,240.3 162.5,239.3 L162.5,239.3 L162.5,239.3 Z" id="Shape" fill="#ffffff"></path>
            <path d="M168.1,246.6 C167.3,245.6 165.7,245.5 164.8,246.5 L65.9,351.7 C65.2,352.4 65.3,353.5 66,354.2 L67.7,355.7 C68.4,356.4 69.5,356.3 70.2,355.6 L73.6,351.9 C73.9,351.6 74.4,351.5 74.8,351.7 L76.4,352.7 L78.2,353.8 C79.1,354.3 80.3,354.1 80.9,353.3 L167.9,249.3 C168.7,248.5 168.7,247.4 168.1,246.6 L168.1,246.6 L168.1,246.6 Z" id="Shape" fill="#ffffff"></path>
        </g>
    </g>
</svg>
